<svg xmlns="http://www.w3.org/2000/svg" xmlns:xlink="http://www.w3.org/1999/xlink" style="display:none">
  <!-- ==================== -->
  <!-- ICONOS -->
  <!-- ==================== -->
    <symbol id="home" viewBox="0 0 24 24">
        <path fill="#ffffff" stroke="#ffffff" stroke-linecap="round" stroke-linejoin="round" stroke-width="2" d="M20 19v-8.5a1 1 0 0 0-.4-.8l-7-5.25a1 1 0 0 0-1.2 0l-7 5.25a1 1 0 0 0-.4.8V19a1 1 0 0 0 1 1h4a1 1 0 0 0 1-1v-3a1 1 0 0 1 1-1h2a1 1 0 0 1 1 1v3a1 1 0 0 0 1 1h4a1 1 0 0 0 1-1"/>
    </symbol>
    <symbol id="cart" viewBox="0 0 24 24">
        <path fill="#ffffff" d="M3.743 2.816A.88.88 0 0 1 5.5 2.88v4.494a.625.625 0 1 0 1.25 0V2.75a.75.75 0 0 1 1.5 0v4.624a.625.625 0 1 0 1.25 0V2.88a.88.88 0 0 1 1.757-.064C11.3 3.428 11.5 6.37 11.5 8c0 1.35-.67 2.544-1.692 3.267c-.216.153-.268.315-.263.397c.123 1.878.455 7.018.455 7.833a2.5 2.5 0 0 1-5 0c0-.816.332-5.955.455-7.833c.005-.082-.047-.244-.263-.397A4 4 0 0 1 3.5 8c0-1.63.2-4.572.243-5.184M13 7.75A5.75 5.75 0 0 1 18.75 2a.75.75 0 0 1 .75.75v8.5c0 .318.106 1.895.225 3.642l.005.083c.13 1.908.27 3.983.27 4.522a2.5 2.5 0 0 1-5 0c0-.514.128-2.611.252-4.534c.062-.971.125-1.912.172-2.61l.023-.353h-.697A1.75 1.75 0 0 1 13 10.25z"/>
    </symbol>
    <symbol id="local" viewBox="0 0 24 24">
        <path fill="#ffffff" d="M12.004 11.73q.667 0 1.14-.475t.472-1.143t-.476-1.14t-1.143-.472t-1.14.476t-.472 1.143t.475 1.14t1.144.472M12 21.019q-3.525-3.117-5.31-5.814q-1.786-2.697-1.786-4.909q0-3.173 2.066-5.234Q9.037 3 12 3t5.03 2.062q2.066 2.061 2.066 5.234q0 2.212-1.785 4.909q-1.786 2.697-5.311 5.814"/>
    </symbol>
    <symbol id="moon" viewBox="0 0 24 24">
        <path fill="#ffffff" d="M11.712 3.45a.75.75 0 0 0-.668-1.197c-5.414.494-8.436 4.752-8.764 9.105c-.328 4.361 2.037 8.975 7.451 10.166c5.686 1.25 11.472-2.837 12.016-8.646a.75.75 0 0 0-1.189-.676c-2.837 2.069-6.08 1.316-8.136-.724c-2.054-2.039-2.8-5.239-.71-8.028"/>
    </symbol>
    <symbol id="sun" viewBox="0 0 36 36">
        <path fill="#FFAC33" d="M16 2s0-2 2-2s2 2 2 2v2s0 2-2 2s-2-2-2-2zm18 14s2 0 2 2s-2 2-2 2h-2s-2 0-2-2s2-2 2-2zM4 16s2 0 2 2s-2 2-2 2H2s-2 0-2-2s2-2 2-2zm5.121-8.707s1.414 1.414 0 2.828s-2.828 0-2.828 0L4.878 8.708s-1.414-1.414 0-2.829c1.415-1.414 2.829 0 2.829 0zm21 21s1.414 1.414 0 2.828s-2.828 0-2.828 0l-1.414-1.414s-1.414-1.414 0-2.828s2.828 0 2.828 0zm-.413-18.172s-1.414 1.414-2.828 0s0-2.828 0-2.828l1.414-1.414s1.414-1.414 2.828 0s0 2.828 0 2.828zm-21 21s-1.414 1.414-2.828 0s0-2.828 0-2.828l1.414-1.414s1.414-1.414 2.828 0s0 2.828 0 2.828zM16 32s0-2 2-2s2 2 2 2v2s0 2-2 2s-2-2-2-2z"/><circle cx="18" cy="18" r="10" fill="#FFAC33"/>
    </symbol>
    <symbol id="people" viewBox="0 0 24 24">
        <path fill="#ffffff" d="M8.75 6.25a3.25 3.25 0 1 1 6.5 0a3.25 3.25 0 0 1-6.5 0M5 5a3 3 0 1 0 0 6a3 3 0 0 0 0-6m14 0a3 3 0 1 0 0 6a3 3 0 0 0 0-6m-9.75 6a1.75 1.75 0 0 0-1.75 1.75v3.75a4.5 4.5 0 1 0 9 0v-3.75A1.75 1.75 0 0 0 14.75 11zm-2.64.978q-.109.369-.11.772v3.75a5.49 5.49 0 0 0 2.035 4.272a4.5 4.5 0 0 1-5.763-3.107l-.712-2.656a1.75 1.75 0 0 1 1.237-2.144zm8.855 8.793a5.49 5.49 0 0 0 2.035-4.27v-3.75q-.001-.406-.11-.774l3.314.888a1.75 1.75 0 0 1 1.237 2.143l-.712 2.657a4.5 4.5 0 0 1-5.764 3.106"/>
    </symbol>
    <symbol id="time" viewBox="0 0 24 24">
        <path fill="#f0781f" d="M12.25 2c-5.514 0-10 4.486-10 10s4.486 10 10 10s10-4.486 10-10s-4.486-10-10-10M18 13h-6.75V6h2v5H18z"/>
    </symbol>
    <symbol id="address" viewBox="0 0 24 24">
        <path fill="#17c6d2" d="M12.004 11.73q.667 0 1.14-.475t.472-1.143t-.476-1.14t-1.143-.472t-1.14.476t-.472 1.143t.475 1.14t1.144.472M12 21.019q-3.525-3.117-5.31-5.814q-1.786-2.697-1.786-4.909q0-3.173 2.066-5.234Q9.037 3 12 3t5.03 2.062q2.066 2.061 2.066 5.234q0 2.212-1.785 4.909q-1.786 2.697-5.311 5.814"/>
    </symbol>
    <symbol id="footer" viewBox="0 0 24 24">
        <path fill="#ffffff" d="M20 21H4q-.425 0-.712-.288T3 20t.288-.712T4 19h16q.425 0 .713.288T21 20t-.288.713T20 21M5 17q-.825 0-1.412-.587T3 15V5q0-.825.588-1.412T5 3h14q.825 0 1.413.588T21 5v10q0 .825-.587 1.413T19 17z"/>
    </symbol>

  <!-- ==================== -->
  <!-- RED SOCIAL -->
  <!-- ==================== -->
    <symbol id="github" viewBox="0 0 24 24">
        <path fill="#ffffff" d="M12 2A10 10 0 0 0 2 12c0 4.42 2.87 8.17 6.84 9.5c.5.08.66-.23.66-.5v-1.69c-2.77.6-3.36-1.34-3.36-1.34c-.46-1.16-1.11-1.47-1.11-1.47c-.91-.62.07-.6.07-.6c1 .07 1.53 1.03 1.53 1.03c.87 1.52 2.34 1.07 2.91.83c.09-.65.35-1.09.63-1.34c-2.22-.25-4.55-1.11-4.55-4.92c0-1.11.38-2 1.03-2.71c-.1-.25-.45-1.29.1-2.64c0 0 .84-.27 2.75 1.02c.79-.22 1.65-.33 2.5-.33s1.71.11 2.5.33c1.91-1.29 2.75-1.02 2.75-1.02c.55 1.35.2 2.39.1 2.64c.65.71 1.03 1.6 1.03 2.71c0 3.82-2.34 4.66-4.57 4.91c.36.31.69.92.69 1.85V21c0 .27.16.59.67.5C19.14 20.16 22 16.42 22 12A10 10 0 0 0 12 2"/>
    </symbol>
    <symbol id="whatsapp" viewBox="0 0 256 258">
        <defs><linearGradient id="IconifyId19714c7c22c6122f519" x1="50%" x2="50%" y1="100%" y2="0%"><stop offset="0%" stop-color="#1FAF38"/><stop offset="100%" stop-color="#60D669"/></linearGradient><linearGradient id="IconifyId19714c7c22c6122f520" x1="50%" x2="50%" y1="100%" y2="0%"><stop offset="0%" stop-color="#F9F9F9"/><stop offset="100%" stop-color="#FFF"/></linearGradient></defs><path fill="url(#IconifyId19714c7c22c6122f519)" d="M5.463 127.456c-.006 21.677 5.658 42.843 16.428 61.499L4.433 252.697l65.232-17.104a123 123 0 0 0 58.8 14.97h.054c67.815 0 123.018-55.183 123.047-123.01c.013-32.867-12.775-63.773-36.009-87.025c-23.23-23.25-54.125-36.061-87.043-36.076c-67.823 0-123.022 55.18-123.05 123.004"/><path fill="url(#IconifyId19714c7c22c6122f520)" d="M1.07 127.416c-.007 22.457 5.86 44.38 17.014 63.704L0 257.147l67.571-17.717c18.618 10.151 39.58 15.503 60.91 15.511h.055c70.248 0 127.434-57.168 127.464-127.423c.012-34.048-13.236-66.065-37.3-90.15C194.633 13.286 162.633.014 128.536 0C58.276 0 1.099 57.16 1.071 127.416m40.24 60.376l-2.523-4.005c-10.606-16.864-16.204-36.352-16.196-56.363C22.614 69.029 70.138 21.52 128.576 21.52c28.3.012 54.896 11.044 74.9 31.06c20.003 20.018 31.01 46.628 31.003 74.93c-.026 58.395-47.551 105.91-105.943 105.91h-.042c-19.013-.01-37.66-5.116-53.922-14.765l-3.87-2.295l-40.098 10.513z"/><path fill="#FFF" d="M96.678 74.148c-2.386-5.303-4.897-5.41-7.166-5.503c-1.858-.08-3.982-.074-6.104-.074c-2.124 0-5.575.799-8.492 3.984c-2.92 3.188-11.148 10.892-11.148 26.561s11.413 30.813 13.004 32.94c1.593 2.123 22.033 35.307 54.405 48.073c26.904 10.609 32.379 8.499 38.218 7.967c5.84-.53 18.844-7.702 21.497-15.139c2.655-7.436 2.655-13.81 1.859-15.142c-.796-1.327-2.92-2.124-6.105-3.716s-18.844-9.298-21.763-10.361c-2.92-1.062-5.043-1.592-7.167 1.597c-2.124 3.184-8.223 10.356-10.082 12.48c-1.857 2.129-3.716 2.394-6.9.801c-3.187-1.598-13.444-4.957-25.613-15.806c-9.468-8.442-15.86-18.867-17.718-22.056c-1.858-3.184-.199-4.91 1.398-6.497c1.431-1.427 3.186-3.719 4.78-5.578c1.588-1.86 2.118-3.187 3.18-5.311c1.063-2.126.531-3.986-.264-5.579c-.798-1.593-6.987-17.343-9.819-23.64"/>
    </symbol>
</svg>
